<svg id="visual" viewBox="0 0 1920 1080" width="1920" height="1080" xmlns="http://www.w3.org/2000/svg" xmlns:xlink="http://www.w3.org/1999/xlink" version="1.1"><rect x="0" y="0" width="1920" height="1080" fill="#ffffff"></rect><path d="M0 952L40 946.3C80 940.7 160 929.3 240 912.8C320 896.3 400 874.7 480 884.8C560 895 640 937 720 938C800 939 880 899 960 860.3C1040 821.7 1120 784.3 1200 788.8C1280 793.3 1360 839.7 1440 839.2C1520 838.7 1600 791.3 1680 780.2C1760 769 1840 794 1880 806.5L1920 819L1920 1081L1880 1081C1840 1081 1760 1081 1680 1081C1600 1081 1520 1081 1440 1081C1360 1081 1280 1081 1200 1081C1120 1081 1040 1081 960 1081C880 1081 800 1081 720 1081C640 1081 560 1081 480 1081C400 1081 320 1081 240 1081C160 1081 80 1081 40 1081L0 1081Z" fill="#ff807c" stroke-linecap="round" stroke-linejoin="miter"></path></svg>