<svg id="visual" viewBox="0 0 960 540" width="960" height="540" xmlns="http://www.w3.org/2000/svg" xmlns:xlink="http://www.w3.org/1999/xlink" version="1.1"><rect x="0" y="0" width="960" height="540" fill="#ffffff"></rect><defs><linearGradient id="grad1_0" x1="43.8%" y1="100%" x2="100%" y2="0%"><stop offset="14.444444444444446%" stop-color="#ffffff" stop-opacity="1"></stop><stop offset="85.55555555555554%" stop-color="#ffffff" stop-opacity="1"></stop></linearGradient></defs><defs><linearGradient id="grad2_0" x1="0%" y1="100%" x2="56.3%" y2="0%"><stop offset="14.444444444444446%" stop-color="#ffffff" stop-opacity="1"></stop><stop offset="85.55555555555554%" stop-color="#ffffff" stop-opacity="1"></stop></linearGradient></defs><g transform="translate(960, 540)"><path d="M-324 0C-319.4 -63.5 -314.9 -126.9 -280.6 -162C-246.3 -197.1 -182.2 -203.8 -130.5 -226C-78.8 -248.3 -39.4 -286.2 0 -324L0 0Z" fill="#ff5049"></path></g><g transform="translate(0, 0)"><path d="M324 0C319.1 62.9 314.2 125.8 280.6 162C247 198.2 184.6 207.8 133 230.4C81.4 252.9 40.7 288.5 0 324L0 0Z" fill="#ff5049"></path></g></svg>