<?xml version="1.0" standalone="no"?>
<!DOCTYPE svg PUBLIC "-//W3C//DTD SVG 20010904//EN"
 "http://www.w3.org/TR/2001/REC-SVG-20010904/DTD/svg10.dtd">
<svg version="1.0" xmlns="http://www.w3.org/2000/svg"
 width="512.000000pt" height="512.000000pt" viewBox="0 0 512.000000 512.000000"
 preserveAspectRatio="xMidYMid meet">
<metadata>
Created by potrace 1.14, written by Peter Selinger 2001-2017
</metadata>
<g transform="translate(0.000000,512.000000) scale(0.100000,-0.100000)"
fill="#000000" stroke="none">
<path d="M1328 4175 c-2 -2 -20 -5 -41 -7 -20 -1 -37 -5 -37 -8 0 -3 -15 -6
-33 -7 -17 -1 -59 -11 -92 -23 -33 -12 -66 -22 -72 -22 -7 -1 -13 -5 -13 -10
0 -4 -3 -7 -7 -6 -12 4 -133 -56 -133 -64 0 -5 -7 -8 -15 -8 -8 0 -15 -4 -15
-9 0 -5 -9 -13 -21 -16 -12 -4 -29 -14 -38 -23 -10 -10 -43 -39 -75 -67 -31
-27 -78 -77 -104 -110 -25 -33 -49 -62 -52 -65 -42 -39 -150 -296 -154 -367 0
-13 -4 -23 -8 -23 -4 0 -6 -8 -6 -17 1 -29 -14 -167 -19 -175 -2 -5 -1 -8 4
-8 4 0 9 -26 9 -58 3 -94 7 -133 16 -138 4 -3 6 -9 3 -14 -12 -20 93 -299 117
-308 4 -2 8 -8 8 -13 0 -6 19 -36 42 -67 43 -60 54 -73 103 -122 21 -21 25
-30 15 -31 -8 0 -139 -2 -290 -3 -151 -1 -282 -6 -291 -10 -15 -7 -33 -34 -42
-66 -6 -21 19 -67 44 -80 13 -8 142 -11 391 -11 l371 0 84 -85 c46 -46 88 -84
93 -84 6 0 10 -4 10 -8 0 -13 319 -330 325 -324 3 3 5 1 5 -5 0 -13 448 -463
461 -463 5 0 9 -4 9 -8 0 -12 470 -482 481 -482 5 0 9 -4 9 -10 0 -17 122
-132 154 -145 22 -10 36 -10 54 -2 13 6 384 372 826 813 l803 803 374 0 c350
0 375 2 399 19 14 11 26 31 28 45 2 15 8 27 13 27 5 0 1 10 -11 22 -11 12 -20
25 -20 29 0 18 -54 23 -295 25 -143 1 -273 3 -290 3 l-30 2 38 34 c20 20 37
39 37 44 0 5 3 11 8 13 12 5 67 80 97 133 16 28 34 53 40 57 5 4 7 8 2 8 -4 0
1 17 11 38 21 40 60 154 65 187 1 11 5 25 8 30 3 6 5 25 5 43 -1 17 2 32 6 32
7 0 3 241 -5 305 -3 22 -10 53 -16 69 -7 16 -10 31 -7 33 8 9 -83 215 -118
269 -20 29 -36 59 -36 64 0 6 -4 8 -10 5 -6 -3 -10 0 -10 8 0 7 -35 49 -78 93
-80 82 -93 92 -152 134 -19 13 -37 27 -40 30 -3 3 -27 17 -55 30 -27 14 -51
28 -53 33 -2 4 -15 7 -28 7 -13 0 -24 4 -24 8 0 4 -21 14 -47 21 -27 8 -52 16
-58 19 -5 3 -18 7 -30 9 -26 3 -60 11 -60 13 0 10 -314 21 -330 12 -5 -3 -21
-7 -35 -8 -14 -1 -41 -5 -60 -9 -19 -4 -41 -8 -47 -8 -7 0 -13 -4 -13 -9 0 -5
-5 -6 -10 -3 -6 4 -18 1 -27 -7 -9 -7 -19 -12 -22 -12 -3 1 -17 -3 -31 -8 -14
-6 -29 -11 -35 -12 -52 -11 -313 -185 -299 -199 3 -3 -4 -8 -15 -12 -12 -3
-21 -13 -21 -21 0 -8 -3 -14 -7 -12 -10 4 -211 -200 -205 -207 3 -3 0 -5 -6
-5 -6 0 -22 -11 -36 -25 -14 -14 -22 -25 -19 -25 3 0 -7 -10 -23 -22 -16 -13
-39 -34 -51 -48 l-22 -25 -177 178 c-97 97 -182 177 -187 177 -6 0 -8 3 -5 6
4 3 -12 22 -35 42 -23 20 -48 43 -55 50 -35 32 -207 136 -215 130 -2 -2 -12 4
-21 12 -10 8 -23 15 -30 16 -6 1 -39 11 -73 23 -35 12 -73 23 -85 25 -13 3
-23 5 -23 6 0 9 -309 23 -317 15z m203 -177 c5 -8 9 -9 9 -2 0 12 79 2 102
-12 6 -4 24 -8 40 -9 15 -2 44 -10 63 -19 19 -9 52 -24 73 -33 47 -21 139 -81
182 -119 18 -16 140 -136 271 -266 131 -131 242 -238 246 -239 5 0 17 -2 27
-4 29 -5 55 11 112 71 28 29 54 50 58 47 3 -4 6 -1 6 4 0 6 80 91 179 190 175
175 251 244 274 252 7 2 14 7 17 10 14 19 168 93 220 106 128 33 313 45 390
25 19 -5 49 -11 65 -13 77 -12 242 -88 315 -145 99 -78 230 -225 230 -259 0
-7 5 -13 10 -13 6 0 10 -9 10 -20 0 -11 3 -20 8 -20 4 0 17 -26 28 -57 12 -32
25 -67 29 -78 9 -23 12 -37 19 -80 3 -16 7 -41 11 -55 7 -31 7 -196 0 -230 -3
-14 -8 -45 -11 -70 -3 -25 -11 -48 -17 -52 -7 -4 -9 -8 -5 -8 8 0 -14 -67 -39
-120 -10 -19 -16 -38 -15 -42 1 -5 -2 -8 -8 -8 -5 0 -10 -6 -10 -12 0 -22
-100 -147 -192 -241 l-88 -91 -478 -1 c-262 -1 -478 -3 -479 -5 -2 -1 -7 -3
-13 -4 -14 -2 -30 -27 -95 -151 -32 -60 -61 -113 -64 -118 -7 -7 -57 121 -53
136 1 4 -3 7 -9 7 -5 0 -7 4 -4 10 3 6 2 10 -3 10 -5 0 -9 6 -9 13 -1 6 -11
37 -23 67 -12 30 -23 60 -24 65 -1 6 -9 26 -18 45 -22 50 -42 114 -40 123 1 4
-2 7 -8 7 -5 0 -10 7 -10 15 0 28 -48 123 -68 134 -64 34 -109 -2 -153 -124
-17 -49 -36 -101 -42 -115 -6 -14 -11 -28 -12 -32 -2 -5 -4 -11 -5 -15 -2 -5
-4 -12 -4 -18 -1 -5 -8 -21 -16 -35 -7 -14 -13 -27 -13 -30 0 -3 -5 -18 -11
-35 -5 -16 -9 -33 -8 -37 1 -5 -3 -8 -10 -8 -6 0 -8 -3 -5 -7 4 -3 2 -12 -4
-20 -6 -7 -8 -13 -4 -13 4 0 3 -6 -2 -12 -6 -7 -17 -36 -26 -65 -9 -28 -22
-64 -29 -80 -6 -15 -12 -30 -12 -33 -1 -3 -7 -14 -13 -25 -11 -18 -12 -18 -13
-2 0 9 0 18 1 20 0 1 -5 16 -11 32 -7 17 -14 41 -16 55 -5 32 -9 51 -17 70 -5
13 -19 72 -18 77 0 2 -5 17 -10 35 -12 41 -21 79 -22 96 0 6 -3 12 -7 12 -4 0
-7 6 -7 13 -1 13 -4 27 -27 119 -8 31 -11 59 -8 62 3 3 0 6 -6 6 -6 0 -9 9 -7
20 2 11 -1 20 -7 20 -6 0 -9 2 -6 5 3 3 -4 38 -15 78 -11 40 -20 82 -21 95 0
12 -4 22 -8 22 -5 0 -7 3 -7 8 1 4 1 9 -1 12 -1 3 -3 16 -6 30 -10 66 -28 99
-58 114 -71 34 -115 -5 -152 -134 0 -3 -7 -21 -15 -40 -7 -19 -12 -38 -11 -42
1 -5 -3 -8 -8 -8 -6 0 -10 -9 -10 -19 0 -11 -4 -23 -10 -26 -5 -3 -10 -13 -10
-22 0 -8 -6 -29 -14 -46 -20 -47 -41 -101 -41 -109 0 -3 -3 -10 -7 -14 -5 -4
-8 -16 -8 -26 0 -10 -4 -18 -10 -18 -5 0 -9 -3 -8 -7 5 -15 -45 -133 -56 -134
-6 0 -178 -1 -382 -1 l-371 -1 -86 85 c-134 133 -213 249 -255 373 -6 17 -14
39 -18 50 -4 11 -9 27 -10 35 -1 8 -8 42 -14 75 -14 70 -6 330 10 330 2 0 10
36 12 58 1 9 7 17 12 17 5 0 7 3 3 6 -10 10 70 184 85 184 4 0 8 5 8 11 0 6
14 30 32 53 35 45 168 180 168 170 0 -3 14 6 32 21 18 15 41 31 52 36 12 5 28
13 36 19 30 19 115 54 128 52 6 -2 12 2 12 8 0 5 3 9 8 9 4 -1 9 0 12 1 3 1
16 3 30 5 33 4 72 13 76 18 2 2 54 5 115 6 84 2 114 -1 120 -11z m500 -1340
c1 -19 5 -38 20 -88 7 -25 14 -54 16 -65 2 -11 8 -32 14 -47 6 -15 8 -32 4
-37 -3 -6 -1 -11 5 -11 6 0 10 -6 9 -12 -1 -7 0 -20 3 -28 13 -36 28 -99 28
-119 0 -11 5 -21 11 -21 6 0 8 -8 4 -19 -3 -11 -1 -22 4 -25 5 -4 8 -15 6 -26
-2 -11 0 -20 4 -20 4 0 8 -6 8 -12 0 -15 81 -336 90 -358 3 -8 5 -19 4 -24 -1
-4 3 -14 9 -20 5 -7 7 -15 4 -18 -3 -4 5 -18 17 -32 44 -50 132 -24 145 43 4
17 11 31 17 31 6 0 8 2 5 5 -3 3 8 41 24 83 16 42 41 111 55 152 14 41 29 77
34 78 5 2 6 8 3 13 -3 6 -1 15 4 22 5 7 17 37 27 67 10 30 23 58 29 62 6 4 8
8 4 8 -9 0 49 161 63 175 8 8 12 -6 8 -31 0 -4 3 -10 8 -13 7 -5 110 -265 117
-296 1 -5 10 -27 19 -49 9 -21 17 -44 17 -52 0 -7 5 -16 10 -19 6 -4 8 -11 5
-16 -4 -5 -1 -9 4 -9 6 0 10 -3 10 -7 -1 -5 0 -11 1 -15 3 -10 7 -26 9 -35 2
-16 51 -66 58 -60 3 4 11 2 18 -3 23 -20 76 23 111 90 19 36 34 71 34 78 0 6
4 12 10 12 5 0 12 11 16 25 3 13 12 29 20 36 8 6 11 15 8 20 -3 5 0 9 7 9 7 0
10 3 6 6 -3 3 4 23 16 43 13 20 28 48 35 64 l12 27 350 0 c192 0 350 -2 350
-5 0 -3 -317 -323 -705 -710 l-705 -706 -705 705 c-388 388 -705 707 -705 710
0 3 148 5 328 5 236 0 335 3 354 12 21 9 35 33 66 113 22 55 43 110 47 121 5
11 7 23 7 28 -1 4 3 7 8 7 6 0 9 3 8 8 -4 13 54 162 63 162 5 0 9 -6 10 -12z"/>
</g>
</svg>
